inDegrees=no
num_controls=7
num_derivatives=13
num_iterations=32
num_multipliers=7
num_parameters=0
num_slacks=7
num_states=26
objective=0.434210
objective_accelerations=0.043186
objective_balance=0.001123
objective_effort=0.012105
objective_height=0.371391
objective_ligament=0.006406
solver_duration=488.976353
status=Solve_Succeeded
success=true
DataType=double
version=3
OpenSimVersion=4.5
endheader
time	/jointset/ground_pelvis/pelvis_tilt/value	/jointset/ground_pelvis/pelvis_tx/value	/jointset/ground_pelvis/pelvis_ty/value	/jointset/hip_l/hip_flexion_l/value	/jointset/hip_l/hip_adduction_l/value	/jointset/hip_l/hip_rotation_l/value	/jointset/back/lumbar_extension/value	/jointset/patellofemoral_l/patellar_flexion_l/value	/jointset/knee_l/knee_flexion_l/value	/jointset/knee_l/knee_adduction_l/value	/jointset/knee_l/knee_rotation_l/value	/jointset/ankle_l/ankle_angle_l/value	/jointset/subtalar_l/subtalar_angle_l/value	/jointset/ground_pelvis/pelvis_tilt/speed	/jointset/ground_pelvis/pelvis_tx/speed	/jointset/ground_pelvis/pelvis_ty/speed	/jointset/hip_l/hip_flexion_l/speed	/jointset/hip_l/hip_adduction_l/speed	/jointset/hip_l/hip_rotation_l/speed	/jointset/back/lumbar_extension/speed	/jointset/patellofemoral_l/patellar_flexion_l/speed	/jointset/knee_l/knee_flexion_l/speed	/jointset/knee_l/knee_adduction_l/speed	/jointset/knee_l/knee_rotation_l/speed	/jointset/ankle_l/ankle_angle_l/speed	/jointset/subtalar_l/subtalar_angle_l/speed	/forceset/tau_hip_flexion_l	/forceset/tau_hip_adduction_l	/forceset/tau_hip_rotation_l	/forceset/tau_knee_flexion_l	/forceset/tau_ankle_angle_l	/forceset/tau_subtalar_angle_l	/forceset/tau_lumbar_extension	lambda_cid13_p0	lambda_cid13_p1	lambda_cid13_p2	lambda_cid13_p3	lambda_cid13_p4	lambda_cid13_p5	lambda_cid14_p0	/jointset/ground_pelvis/pelvis_tilt/accel	/jointset/ground_pelvis/pelvis_tx/accel	/jointset/ground_pelvis/pelvis_ty/accel	/jointset/hip_l/hip_flexion_l/accel	/jointset/hip_l/hip_adduction_l/accel	/jointset/hip_l/hip_rotation_l/accel	/jointset/back/lumbar_extension/accel	/jointset/patellofemoral_l/patellar_flexion_l/accel	/jointset/knee_l/knee_flexion_l/accel	/jointset/knee_l/knee_adduction_l/accel	/jointset/knee_l/knee_rotation_l/accel	/jointset/ankle_l/ankle_angle_l/accel	/jointset/subtalar_l/subtalar_angle_l/accel	gamma_cid13_p0	gamma_cid13_p1	gamma_cid13_p2	gamma_cid13_p3	gamma_cid13_p4	gamma_cid13_p5	gamma_cid14_p0
1.5	-0.2486566936599589	0.08874579343388582	0.8257589604898703	0.7721771218739846	-0.3658756306485145	-0.07529784823822538	-0.3004285955451417	0.6907085783973108	0.6907085783973113	-0.07306546695043721	-0.164571534534536	0.2746265761021547	0.1451339447455282	0.2466229471625609	0.2103806602556934	0.3369230863222844	-1.700195308519219	0.04179212906983334	-0.5304023632085088	0.606916476652372	-1.861116579915364	-1.861116579915359	-0.1932823560137566	0.07695566231558792	-0.5475552650292619	-0.1553404804824827	-0.0953131151306628	0.08019689993754858	0.01012159217981444	-0.1278478509725385	-0.04388007763395652	-0.0293415212123893	0.1021896365983761	-41.31197904169834	20.77550894924879	-4.505911132794256	3.129790646927714	-437.3139973256036	-20.35316608346384	-15.34534723796269	0.2714987630521849	0.2480348807064804	-0.5637493916818341	-0.7440618019489548	0.2868635281251343	-0.1360093134938619	1.113739267347762	-0.9488888677160814	-0.9488888677160908	-0.1772522350832364	0.4165401500931673	-0.4889741277849708	0.3262613914859892	3.819825466039496e-08	2.525701420902393e-06	-1.203790353870653e-06	2.987258574944456e-07	3.103108373039289e-07	1.888253753730133e-06	3.057116690993826e-07
1.51	-0.2461769729997191	0.09086169851392427	0.8290993543905284	0.7551394435735451	-0.3654445960619124	-0.08060911494948009	-0.2943049917923999	0.6720518791394857	0.6720518791394755	-0.07500892351167465	-0.1637834965336073	0.269126820434597	0.1435952654154505	0.2492766238240599	0.2127641643753742	0.3310891210108564	-1.707103501108624	0.04441673684318821	-0.5317933955670606	0.6177128872152146	-1.869976202519006	-1.869976202518979	-0.1953816654464153	0.08065631162782277	-0.5523204357916357	-0.1523718683902123	-0.09242527385528121	0.07860857141533503	0.01068961856671418	-0.1248909755183788	-0.04400720005966859	-0.03033364327052575	0.09957642132720575	-41.28692125865694	20.99164033802164	-4.30008740375044	3.335285047079929	-435.3241498199756	-20.35819936279476	-16.06546686487408	0.255628800544096	0.2281407198413639	-0.6031319600143633	-0.6286567597279319	0.2505446115778391	-0.131648807425661	1.048883948741376	-0.8175108671582527	-0.8175108671549792	-0.2218674860112549	0.3472380104163824	-0.4588896263600031	0.2854710575011354	5.250744613440161e-08	2.586828285006137e-06	-1.479011933019274e-06	3.03687810413155e-07	3.499056971344303e-07	2.057372107753706e-06	3.424665518437364e-07
1.52	-0.2436720502362908	0.09300036514360782	0.8323794262662435	0.7380397915927543	-0.3649872583556479	-0.0859324917063993	-0.2880761655344311	0.653313981273521	0.653313981273517	-0.07697249260494726	-0.1629583699018443	0.2635816928442365	0.1420869341941764	0.2516633677993691	0.2149329701847172	0.3248586813337704	-1.712590044589702	0.04705275300202809	-0.5328243723412037	0.6279609776976155	-1.877356301541445	-1.877356301541396	-0.197304862425236	0.08437338848517259	-0.5566296495898632	-0.1492708587217979	-0.08953743257991743	0.07702024289312318	0.01125764495370383	-0.1219341000642237	-0.04413432248537878	-0.03132576532866133	0.09696320605602105	-41.2645647501629	21.20444895466217	-4.089397310490789	3.527302956423929	-433.3809931442977	-20.42601357956372	-16.77561817863117	0.2181122258142764	0.2050952186389304	-0.6430442648134023	-0.4597319802836178	0.2891452052221214	-0.06399819661208213	1.004075251259464	-0.6529841514755212	-0.6529841514755166	-0.1420297443156857	0.4198256591161928	-0.3977827349557174	0.3527409067147776	4.991641835807762e-08	2.695961307779484e-06	-1.561811758290768e-06	3.190021540721885e-07	3.560884897968887e-07	2.150490467463022e-06	3.595931725544637e-07
1.53	-0.2411445718401702	0.09515965321430785	0.8355952562949044	0.7208924353503361	-0.3645034678570714	-0.09126496715752415	-0.2817476054971608	0.6345099517633278	0.6345099517633224	-0.07895397160345469	-0.1620964483405911	0.257995948168553	0.1406104111835396	0.253791720169437	0.2168888463811572	0.3182462289926691	-1.71664098049723	0.0497025112450111	-0.5336074597304232	0.6376558232408888	-1.88318019055654	-1.8831801905565	-0.1989655029367376	0.0880081912887502	-0.560428062160832	-0.1460122567651327	-0.08663739610186189	0.07526551978036289	0.01179834411881118	-0.119076699871363	-0.04410942090631215	-0.03239307909872267	0.09435226698426671	-41.20462094170147	21.45085987109586	-3.892663839536833	3.684830531534369	-431.5279996168662	-20.46728571660377	-17.47210852371348	0.2041150035323435	0.1855360645580651	-0.6794478144597592	-0.3417328405300392	0.2523749776828529	-0.07562545251242393	0.9379082286564598	-0.5067505591831577	-0.5067505591845251	-0.1738970265961598	0.3346949717975333	-0.3570962687590692	0.3153455516762342	2.936890762827752e-08	2.856100874139284e-06	-1.440163470067818e-06	3.453159128928164e-07	3.267709610933019e-07	2.162858833213441e-06	3.558647648544628e-07
1.54	-0.2385970262681619	0.09733744049585442	0.8387431413810136	0.7037117780599337	-0.3639932830072949	-0.0966033057710266	-0.2753249531998987	0.6156557515064522	0.6156557515064448	-0.08095122017150891	-0.1611983012751252	0.2523749742170399	0.1391670593347763	0.2556768029766769	0.2186328123540283	0.3112696928234788	-1.719250254186474	0.05233162324184712	-0.5339970048170617	0.6467794296959729	-1.887390450877901	-1.88739045087787	-0.2004587763293859	0.09161848932509195	-0.5636755047554637	-0.142636626347112	-0.08373735962381364	0.07351079666762586	0.01233904328384024	-0.1162192996784966	-0.04408451932723772	-0.03346039286875246	0.09174132791250134	-41.14860544160786	21.6950567406057	-3.692261859800954	3.833163205338563	-429.7401963460437	-20.5689797881583	-18.15108576818835	0.1694583132486852	0.1627131739251483	-0.7158610304312035	-0.1713995366268895	0.2850159559927173	0.01471026390422431	0.8898274336216565	-0.3302584127286647	-0.3302584127286674	-0.1085563205450804	0.4149247056690474	-0.2875887396883268	0.3761465989858458	8.049809842433833e-09	3.007730208016832e-06	-1.318572507484164e-06	3.703068576412385e-07	2.940719651167205e-07	2.164720725683229e-06	3.517664821674172e-07
1.55	-0.2360319379858159	0.09953153864802503	0.841819501238814	0.6865124367514249	-0.3634568790766302	-0.1019440640335127	-0.2688140878448207	0.5967676476215894	0.5967676476215751	-0.08296225862243066	-0.1602645703162998	0.2467242840414933	0.1377581017008516	0.2572961414118317	0.2201439761152578	0.3039485727616124	-1.72036536142978	0.05493938811412404	-0.534079729274154	0.655274734296627	-1.889955559562792	-1.889955559562772	-0.2017366024100997	0.09512341966751474	-0.5663756656597331	-0.1391455574771692	-0.08074211159276018	0.07162385861388737	0.01283822055460693	-0.1134850114286915	-0.04396376717155025	-0.03461787590585448	0.08904764866550292	-41.07756728744598	21.98431786299626	-3.50879325102582	4.018461310432124	-428.053688646948	-20.62889453845239	-18.80851030557938	0.1514673676713631	0.1389730445570727	-0.7482459610275242	-0.04366764590551266	0.2470175167901134	-0.008194730592815164	0.8115459199836671	-0.1784910621080251	-0.1784910621095518	-0.1351224607596061	0.317471825708695	-0.2481043859575375	0.3366174746585963	-1.415829042102524e-08	3.149554274034394e-06	-1.197047594006656e-06	3.937736905238584e-07	2.574769307603846e-07	2.154477333720986e-06	3.472420391692112e-07
1.56	-0.2334519971673174	0.1017394794512749	0.8448210482026025	0.6693095241049339	-0.3628947253444558	-0.1072833357265819	-0.2622218366543981	0.5778621218567199	0.5778621218567161	-0.08498562067593485	-0.1592959511286252	0.2410492173328701	0.1363842608443582	0.2586473102078961	0.2214013425698806	0.2963071140211462	-1.719964521782007	0.0574815835441967	-0.5336996909343215	0.6630565967651388	-1.890874826877229	-1.890874826877219	-0.2029234968478136	0.09859613509713579	-0.5685508113704545	-0.1356132708608209	-0.07774686356172554	0.06973692056017015	0.0133373978254391	-0.1107507231788944	-0.04384301501585846	-0.03577535894292621	0.08635396941848425	-41.0118118097097	22.27249008572355	-3.322849825436888	4.198690538336328	-426.4542308731829	-20.74665617375064	-19.4402819861199	0.1158243854306172	0.1119537126037758	-0.7799287661511927	0.131789841588869	0.2719020675518602	0.1072628232892696	0.7471390071932051	-0.001090138637717691	-0.001090138637717691	-0.09036999194513487	0.4084817231087352	-0.1825857009787265	0.384390148266921	-3.695482832850609e-08	3.269306708647893e-06	-1.066401341606456e-06	4.141237665242438e-07	2.171516911584236e-07	2.122497770630764e-06	3.40352729192688e-07
